<?xml version="1.0" encoding="UTF-8"?>
<svg id="Ebene_1" data-name="Ebene 1" xmlns="http://www.w3.org/2000/svg" viewBox="0 0 132.04 157.73">
  <defs>
    <style>
      .cls-1 {
        fill: #fff;
      }

      .cls-2 {
        fill: #88c170;
      }

      .cls-3 {
        fill: #3aaa35;
      }

      .cls-4 {
        fill: #bed7ac;
      }
    </style>
  </defs>
  <path class="cls-4" d="M117.48,139.43l-65.8,17.63c-10.52,2.82-21.35-3.54-24.21-14.19L.69,42.95c-2.86-10.66,3.35-21.58,13.87-24.4L80.37.92c10.52-2.82,21.35,3.54,24.21,14.19l26.77,99.92c2.86,10.66-3.35,21.58-13.87,24.4Z"/>
  <path class="cls-2" d="M100.08,150.69H31.96c-10.89,0-19.71-8.94-19.71-19.97V27.27c0-11.03,8.83-19.97,19.71-19.97h68.12c10.89,0,19.71,8.94,19.71,19.97v103.45c0,11.03-8.83,19.97-19.71,19.97Z"/>
  <path class="cls-3" d="M80.37,156.94l-65.8-17.63c-10.52-2.82-16.73-13.74-13.87-24.4L27.47,14.99C30.32,4.33,41.16-2.02,51.68.8l65.8,17.63c10.52,2.82,16.73,13.74,13.87,24.4l-26.77,99.92c-2.86,10.66-13.69,17.01-24.21,14.19Z"/>
  <path class="cls-1" d="M66.53,113.93c-4.76,0-8.92-.68-12.49-2.04-3.57-1.36-6.54-3.04-8.92-5.03-2.38-1.99-4.33-3.84-5.86-5.54l11.98-10.45c1.44,2.12,3.42,4.16,5.92,6.12,2.5,1.96,5.67,2.93,9.49,2.93,2.8,0,4.99-.55,6.56-1.66,1.57-1.1,2.36-2.38,2.36-3.82,0-1.36-.51-2.44-1.53-3.25-1.02-.81-2.38-1.51-4.08-2.1-1.7-.59-3.61-1.19-5.73-1.78-2.38-.59-4.84-1.34-7.39-2.23-2.55-.89-4.93-2.06-7.14-3.5-2.21-1.44-3.99-3.29-5.35-5.54-1.36-2.25-2.04-5.07-2.04-8.47,0-5.69,2.23-10.28,6.69-13.76,4.46-3.48,10.3-5.22,17.52-5.22,5.1,0,9.73.98,13.89,2.93,4.16,1.96,7.47,4.8,9.94,8.54l-10.83,8.54c-1.53-2.21-3.48-3.93-5.86-5.16-2.38-1.23-4.89-1.85-7.52-1.85-2.21,0-4.01.4-5.41,1.21-1.4.81-2.1,1.85-2.1,3.12,0,.94.34,1.72,1.02,2.36.68.64,1.78,1.21,3.31,1.72,1.53.51,3.61,1.1,6.24,1.78,2.46.6,5.05,1.32,7.77,2.17,2.72.85,5.29,2.02,7.71,3.5,2.42,1.49,4.37,3.44,5.86,5.86,1.49,2.42,2.23,5.46,2.23,9.11,0,4.25-1.08,8.01-3.25,11.28-2.17,3.27-5.22,5.8-9.17,7.58-3.95,1.78-8.56,2.68-13.82,2.68Z"/>
</svg>